# xmcd
#
# Track frame offsets: 
#        150
#        13395
#        25554
#        41126
#        51150
#        64842
#        78834
#        90953
#        103364
#        117517
#        130200
#        139638
#        152154
#        165731
#        179512
#        193473
#        207916
#        220335
#        234756
#        247353
#
# Disc length: 3476 seconds
#
# Revision: 0
# Processed by: cddbd v1.5.2PL0 Copyright (c) Steve Scherf et al.
# Submitted via: ExactAudioCopy v1.0b4
#
DISCID=250d9214
DTITLE=201 Blues Hits - CD 1
DYEAR=2013
DGENRE=Blues
TTITLE0=Magic Sam - All Your Love
TTITLE1=Sylvester Cotton - Three Cent Stamp Blues
TTITLE2=Muddy Walters - Country Blues
TTITLE3=John Lee Hooker - Dimples
TTITLE4=B.B. King - Sweet Little Angel
TTITLE5=Willie Dixon And The All Stars - Walkin' The Blues
TTITLE6=Big Joe Williams - She's A Married Woman
TTITLE7=Joe Hill Louis - She's Taking All My Money
TTITLE8=Otis Rush - I Can't Quit You Baby
TTITLE9=B.B. King - Ten Long Years
TTITLE10=Percy Mayfield - Louisiana
TTITLE11=Jimmy Reed - Pretty Thing
TTITLE12=Jack McVea - Inflation Blues
TTITLE13=Screamin' Jay Hawkins - (She Put The) Whamee On Me
TTITLE14=B.B. King - You Know I Love You
TTITLE15=Danny Overbea - Forty Cups Of Coffee
TTITLE16=Big Bill Bronzy - Missisippi River Blues
TTITLE17=Champion Jack Dupree - Junker's Blues
TTITLE18=Jimmy Rodgers - That's Alright
TTITLE19=B.B. King - Woke Up This Morning
EXTD=
EXTT0=
EXTT1=
EXTT2=
EXTT3=
EXTT4=
EXTT5=
EXTT6=
EXTT7=
EXTT8=
EXTT9=
EXTT10=
EXTT11=
EXTT12=
EXTT13=
EXTT14=
EXTT15=
EXTT16=
EXTT17=
EXTT18=
EXTT19=
PLAYORDER=
